STARTFONT 2.1
FONT -artwiz-edges-medium-r-normal--10-100-75-75-m-50-ISO8859-1
SIZE 10 75 75
FONTBOUNDINGBOX 5 10 0 0
STARTPROPERTIES 25
FONTNAME_REGISTRY ""
FOUNDRY "artwiz"
FAMILY_NAME "edges"
WEIGHT_NAME "medium"
SLANT "r"
SETWIDTH_NAME "normal"
ADD_STYLE_NAME ""
PIXEL_SIZE 10
POINT_SIZE 100
RESOLUTION_X 75
RESOLUTION_Y 75
SPACING "m"
AVERAGE_WIDTH 50
CHARSET_REGISTRY "ISO8859"
CHARSET_ENCODING "1"
COPYRIGHT "artwiz, fixed by aleczapka"
WEIGHT 10
RESOLUTION 99
X_HEIGHT 10
QUAD_WIDTH 5
_XMBDFED_INFO "Edited with xmbdfed 4.5."
DEFAULT_CHAR 52
FONT_ASCENT 10
FONT_DESCENT 0
_ORIGINAL_FONT_NAME "edges"
ENDPROPERTIES
CHARS 256
STARTCHAR char0
ENCODING 0
SWIDTH 0 0
DWIDTH 5 0
BBX 0 0 0 0
BITMAP
ENDCHAR
STARTCHAR char1
ENCODING 1
SWIDTH 0 0
DWIDTH 5 0
BBX 5 8 0 1
BITMAP
70
88
D8
88
F8
A8
88
70
ENDCHAR
STARTCHAR char2
ENCODING 2
SWIDTH 0 0
DWIDTH 5 0
BBX 5 8 0 1
BITMAP
70
F8
A8
F8
88
D8
F8
70
ENDCHAR
STARTCHAR char3
ENCODING 3
SWIDTH 0 0
DWIDTH 5 0
BBX 5 5 0 2
BITMAP
D8
F8
F8
70
20
ENDCHAR
STARTCHAR char4
ENCODING 4
SWIDTH 0 0
DWIDTH 5 0
BBX 5 5 0 2
BITMAP
20
70
F8
70
20
ENDCHAR
STARTCHAR char5
ENCODING 5
SWIDTH 0 0
DWIDTH 5 0
BBX 5 7 0 2
BITMAP
70
70
F8
F8
A8
20
70
ENDCHAR
STARTCHAR char6
ENCODING 6
SWIDTH 0 0
DWIDTH 5 0
BBX 5 6 0 2
BITMAP
20
70
F8
F8
A8
70
ENDCHAR
STARTCHAR char7
ENCODING 7
SWIDTH 0 0
DWIDTH 5 0
BBX 5 2 0 4
BITMAP
70
88
ENDCHAR
STARTCHAR char8
ENCODING 8
SWIDTH 0 0
DWIDTH 5 0
BBX 5 3 0 4
BITMAP
30
48
80
ENDCHAR
STARTCHAR char9
ENCODING 9
SWIDTH 0 0
DWIDTH 5 0
BBX 0 0 0 0
BITMAP
ENDCHAR
STARTCHAR char10
ENCODING 10
SWIDTH 0 0
DWIDTH 5 0
BBX 0 0 0 0
BITMAP
ENDCHAR
STARTCHAR char11
ENCODING 11
SWIDTH 0 0
DWIDTH 5 0
BBX 0 0 0 0
BITMAP
ENDCHAR
STARTCHAR char12
ENCODING 12
SWIDTH 0 0
DWIDTH 5 0
BBX 0 0 0 0
BITMAP
ENDCHAR
STARTCHAR char13
ENCODING 13
SWIDTH 0 0
DWIDTH 5 0
BBX 0 0 0 0
BITMAP
ENDCHAR
STARTCHAR char14
ENCODING 14
SWIDTH 0 0
DWIDTH 5 0
BBX 2 3 1 4
BITMAP
C0
C0
C0
ENDCHAR
STARTCHAR char15
ENCODING 15
SWIDTH 0 0
DWIDTH 5 0
BBX 0 0 0 0
BITMAP
ENDCHAR
STARTCHAR char16
ENCODING 16
SWIDTH 0 0
DWIDTH 5 0
BBX 0 0 0 0
BITMAP
ENDCHAR
STARTCHAR char17
ENCODING 17
SWIDTH 0 0
DWIDTH 5 0
BBX 3 5 1 3
BITMAP
80
C0
E0
C0
80
ENDCHAR
STARTCHAR char18
ENCODING 18
SWIDTH 0 0
DWIDTH 5 0
BBX 3 5 1 3
BITMAP
20
60
E0
60
20
ENDCHAR
STARTCHAR char19
ENCODING 19
SWIDTH 0 0
DWIDTH 5 0
BBX 3 8 1 2
BITMAP
40
C0
40
40
40
40
E0
40
ENDCHAR
STARTCHAR char20
ENCODING 20
SWIDTH 0 0
DWIDTH 5 0
BBX 3 8 1 2
BITMAP
A0
A0
A0
A0
A0
00
A0
A0
ENDCHAR
STARTCHAR char21
ENCODING 21
SWIDTH 0 0
DWIDTH 5 0
BBX 4 6 0 2
BITMAP
F0
D0
50
50
50
50
ENDCHAR
STARTCHAR char22
ENCODING 22
SWIDTH 0 0
DWIDTH 5 0
BBX 4 7 0 2
BITMAP
70
90
60
90
60
90
E0
ENDCHAR
STARTCHAR char23
ENCODING 23
SWIDTH 0 0
DWIDTH 5 0
BBX 4 2 0 2
BITMAP
F0
F0
ENDCHAR
STARTCHAR char24
ENCODING 24
SWIDTH 0 0
DWIDTH 5 0
BBX 4 7 0 2
BITMAP
20
70
20
20
70
20
F0
ENDCHAR
STARTCHAR char25
ENCODING 25
SWIDTH 0 0
DWIDTH 5 0
BBX 0 0 0 0
BITMAP
ENDCHAR
STARTCHAR char26
ENCODING 26
SWIDTH 0 0
DWIDTH 5 0
BBX 3 4 1 3
BITMAP
40
40
E0
40
ENDCHAR
STARTCHAR char27
ENCODING 27
SWIDTH 0 0
DWIDTH 5 0
BBX 0 0 0 0
BITMAP
ENDCHAR
STARTCHAR char28
ENCODING 28
SWIDTH 0 0
DWIDTH 5 0
BBX 4 3 0 4
BITMAP
80
80
F0
ENDCHAR
STARTCHAR char29
ENCODING 29
SWIDTH 0 0
DWIDTH 5 0
BBX 5 3 0 4
BITMAP
50
F8
50
ENDCHAR
STARTCHAR char30
ENCODING 30
SWIDTH 0 0
DWIDTH 5 0
BBX 5 3 0 4
BITMAP
20
70
F8
ENDCHAR
STARTCHAR char31
ENCODING 31
SWIDTH 0 0
DWIDTH 5 0
BBX 5 3 0 4
BITMAP
F8
70
20
ENDCHAR
STARTCHAR char32
ENCODING 32
SWIDTH 0 0
DWIDTH 5 0
BBX 0 0 0 0
BITMAP
ENDCHAR
STARTCHAR char33
ENCODING 33
SWIDTH 0 0
DWIDTH 5 0
BBX 1 8 1 1
BITMAP
80
80
80
80
80
00
80
80
ENDCHAR
STARTCHAR char34
ENCODING 34
SWIDTH 0 0
DWIDTH 5 0
BBX 3 2 1 7
BITMAP
A0
A0
ENDCHAR
STARTCHAR char35
ENCODING 35
SWIDTH 0 0
DWIDTH 5 0
BBX 5 5 0 2
BITMAP
50
F8
50
F8
50
ENDCHAR
STARTCHAR char36
ENCODING 36
SWIDTH 0 0
DWIDTH 5 0
BBX 4 9 0 0
BITMAP
20
20
F0
A0
F0
30
F0
20
20
ENDCHAR
STARTCHAR char37
ENCODING 37
SWIDTH 0 0
DWIDTH 5 0
BBX 4 6 0 1
BITMAP
80
90
20
40
90
10
ENDCHAR
STARTCHAR char38
ENCODING 38
SWIDTH 0 0
DWIDTH 5 0
BBX 4 7 0 1
BITMAP
40
A0
A0
40
B0
A0
70
ENDCHAR
STARTCHAR char39
ENCODING 39
SWIDTH 0 0
DWIDTH 5 0
BBX 2 2 1 6
BITMAP
40
80
ENDCHAR
STARTCHAR char40
ENCODING 40
SWIDTH 0 0
DWIDTH 5 0
BBX 3 9 1 0
BITMAP
20
40
80
80
80
80
80
40
20
ENDCHAR
STARTCHAR char41
ENCODING 41
SWIDTH 0 0
DWIDTH 5 0
BBX 3 9 0 0
BITMAP
80
40
20
20
20
20
20
40
80
ENDCHAR
STARTCHAR char42
ENCODING 42
SWIDTH 0 0
DWIDTH 5 0
BBX 4 5 0 2
BITMAP
90
60
F0
60
90
ENDCHAR
STARTCHAR char43
ENCODING 43
SWIDTH 0 0
DWIDTH 5 0
BBX 3 5 0 2
BITMAP
40
40
E0
40
40
ENDCHAR
STARTCHAR char44
ENCODING 44
SWIDTH 0 0
DWIDTH 5 0
BBX 2 2 0 0
BITMAP
40
80
ENDCHAR
STARTCHAR char45
ENCODING 45
SWIDTH 0 0
DWIDTH 5 0
BBX 4 1 0 4
BITMAP
F0
ENDCHAR
STARTCHAR char46
ENCODING 46
SWIDTH 0 0
DWIDTH 5 0
BBX 1 2 1 1
BITMAP
80
80
ENDCHAR
STARTCHAR char47
ENCODING 47
SWIDTH 0 0
DWIDTH 5 0
BBX 4 8 0 0
BITMAP
10
10
20
20
40
40
80
80
ENDCHAR
STARTCHAR char48
ENCODING 48
SWIDTH 0 0
DWIDTH 5 0
BBX 4 7 0 1
BITMAP
F0
90
B0
D0
90
90
F0
ENDCHAR
STARTCHAR char49
ENCODING 49
SWIDTH 0 0
DWIDTH 5 0
BBX 2 7 1 1
BITMAP
C0
40
40
40
40
40
40
ENDCHAR
STARTCHAR char50
ENCODING 50
SWIDTH 0 0
DWIDTH 5 0
BBX 4 7 0 1
BITMAP
F0
10
F0
80
80
80
F0
ENDCHAR
STARTCHAR char51
ENCODING 51
SWIDTH 0 0
DWIDTH 5 0
BBX 4 7 0 1
BITMAP
F0
10
F0
10
10
10
F0
ENDCHAR
STARTCHAR char52
ENCODING 52
SWIDTH 0 0
DWIDTH 5 0
BBX 4 7 0 1
BITMAP
90
90
F0
10
10
10
10
ENDCHAR
STARTCHAR char53
ENCODING 53
SWIDTH 0 0
DWIDTH 5 0
BBX 4 7 0 1
BITMAP
F0
80
F0
10
10
10
F0
ENDCHAR
STARTCHAR char54
ENCODING 54
SWIDTH 0 0
DWIDTH 5 0
BBX 4 7 0 1
BITMAP
F0
80
F0
90
90
90
F0
ENDCHAR
STARTCHAR char55
ENCODING 55
SWIDTH 0 0
DWIDTH 5 0
BBX 4 7 0 1
BITMAP
F0
10
10
10
10
10
10
ENDCHAR
STARTCHAR char56
ENCODING 56
SWIDTH 0 0
DWIDTH 5 0
BBX 4 7 0 1
BITMAP
F0
90
F0
90
90
90
F0
ENDCHAR
STARTCHAR char57
ENCODING 57
SWIDTH 0 0
DWIDTH 5 0
BBX 4 7 0 1
BITMAP
F0
90
F0
10
10
10
10
ENDCHAR
STARTCHAR char58
ENCODING 58
SWIDTH 0 0
DWIDTH 5 0
BBX 1 5 1 1
BITMAP
80
80
00
80
80
ENDCHAR
STARTCHAR char59
ENCODING 59
SWIDTH 0 0
DWIDTH 5 0
BBX 2 5 0 1
BITMAP
40
40
00
40
80
ENDCHAR
STARTCHAR char60
ENCODING 60
SWIDTH 0 0
DWIDTH 5 0
BBX 4 7 0 1
BITMAP
10
20
40
80
40
20
10
ENDCHAR
STARTCHAR char61
ENCODING 61
SWIDTH 0 0
DWIDTH 5 0
BBX 4 3 0 3
BITMAP
F0
00
F0
ENDCHAR
STARTCHAR char62
ENCODING 62
SWIDTH 0 0
DWIDTH 5 0
BBX 4 7 0 1
BITMAP
80
40
20
10
20
40
80
ENDCHAR
STARTCHAR char63
ENCODING 63
SWIDTH 0 0
DWIDTH 5 0
BBX 4 7 0 1
BITMAP
F0
10
70
40
00
40
40
ENDCHAR
STARTCHAR char64
ENCODING 64
SWIDTH 0 0
DWIDTH 5 0
BBX 4 8 0 1
BITMAP
F0
90
90
D0
D0
10
90
F0
ENDCHAR
STARTCHAR char65
ENCODING 65
SWIDTH 0 0
DWIDTH 5 0
BBX 4 7 0 1
BITMAP
F0
90
F0
90
90
90
90
ENDCHAR
STARTCHAR char66
ENCODING 66
SWIDTH 0 0
DWIDTH 5 0
BBX 4 7 0 1
BITMAP
F0
90
E0
90
90
90
F0
ENDCHAR
STARTCHAR char67
ENCODING 67
SWIDTH 0 0
DWIDTH 5 0
BBX 4 7 0 1
BITMAP
F0
80
80
80
80
80
F0
ENDCHAR
STARTCHAR char68
ENCODING 68
SWIDTH 0 0
DWIDTH 5 0
BBX 4 7 0 1
BITMAP
E0
90
90
90
90
90
E0
ENDCHAR
STARTCHAR char69
ENCODING 69
SWIDTH 0 0
DWIDTH 5 0
BBX 4 7 0 1
BITMAP
F0
80
F0
80
80
80
F0
ENDCHAR
STARTCHAR char70
ENCODING 70
SWIDTH 0 0
DWIDTH 5 0
BBX 4 7 0 1
BITMAP
F0
80
F0
80
80
80
80
ENDCHAR
STARTCHAR char71
ENCODING 71
SWIDTH 0 0
DWIDTH 5 0
BBX 4 7 0 1
BITMAP
F0
80
B0
90
90
90
F0
ENDCHAR
STARTCHAR char72
ENCODING 72
SWIDTH 0 0
DWIDTH 5 0
BBX 4 7 0 1
BITMAP
90
90
F0
90
90
90
90
ENDCHAR
STARTCHAR char73
ENCODING 73
SWIDTH 0 0
DWIDTH 5 0
BBX 3 7 0 1
BITMAP
E0
40
40
40
40
40
E0
ENDCHAR
STARTCHAR char74
ENCODING 74
SWIDTH 0 0
DWIDTH 5 0
BBX 4 7 0 1
BITMAP
10
10
10
10
90
90
F0
ENDCHAR
STARTCHAR char75
ENCODING 75
SWIDTH 0 0
DWIDTH 5 0
BBX 4 7 0 1
BITMAP
90
90
E0
90
90
90
90
ENDCHAR
STARTCHAR char76
ENCODING 76
SWIDTH 0 0
DWIDTH 5 0
BBX 4 7 0 1
BITMAP
80
80
80
80
80
80
F0
ENDCHAR
STARTCHAR char77
ENCODING 77
SWIDTH 0 0
DWIDTH 5 0
BBX 4 7 0 1
BITMAP
90
F0
B0
90
90
90
90
ENDCHAR
STARTCHAR char78
ENCODING 78
SWIDTH 0 0
DWIDTH 5 0
BBX 4 7 0 1
BITMAP
F0
90
90
90
90
90
90
ENDCHAR
STARTCHAR char79
ENCODING 79
SWIDTH 0 0
DWIDTH 5 0
BBX 4 7 0 1
BITMAP
F0
90
90
90
90
90
F0
ENDCHAR
STARTCHAR char80
ENCODING 80
SWIDTH 0 0
DWIDTH 5 0
BBX 4 7 0 1
BITMAP
F0
90
F0
80
80
80
80
ENDCHAR
STARTCHAR char81
ENCODING 81
SWIDTH 0 0
DWIDTH 5 0
BBX 5 8 0 0
BITMAP
F0
90
90
90
D0
B0
F0
08
ENDCHAR
STARTCHAR char82
ENCODING 82
SWIDTH 0 0
DWIDTH 5 0
BBX 4 7 0 1
BITMAP
F0
90
E0
90
90
90
90
ENDCHAR
STARTCHAR char83
ENCODING 83
SWIDTH 0 0
DWIDTH 5 0
BBX 4 7 0 1
BITMAP
F0
80
F0
10
10
10
F0
ENDCHAR
STARTCHAR char84
ENCODING 84
SWIDTH 0 0
DWIDTH 5 0
BBX 4 7 0 1
BITMAP
F0
20
20
20
20
20
20
ENDCHAR
STARTCHAR char85
ENCODING 85
SWIDTH 0 0
DWIDTH 5 0
BBX 4 7 0 1
BITMAP
90
90
90
90
90
90
F0
ENDCHAR
STARTCHAR char86
ENCODING 86
SWIDTH 0 0
DWIDTH 5 0
BBX 4 7 0 1
BITMAP
90
90
90
90
A0
C0
80
ENDCHAR
STARTCHAR char87
ENCODING 87
SWIDTH 0 0
DWIDTH 5 0
BBX 4 7 0 1
BITMAP
90
90
90
D0
F0
F0
90
ENDCHAR
STARTCHAR char88
ENCODING 88
SWIDTH 0 0
DWIDTH 5 0
BBX 4 7 0 1
BITMAP
90
90
60
90
90
90
90
ENDCHAR
STARTCHAR char89
ENCODING 89
SWIDTH 0 0
DWIDTH 5 0
BBX 4 7 0 1
BITMAP
90
90
F0
10
10
10
F0
ENDCHAR
STARTCHAR char90
ENCODING 90
SWIDTH 0 0
DWIDTH 5 0
BBX 4 7 0 1
BITMAP
F0
10
20
40
80
80
F0
ENDCHAR
STARTCHAR char91
ENCODING 91
SWIDTH 0 0
DWIDTH 5 0
BBX 4 9 0 0
BITMAP
F0
80
80
80
80
80
80
80
F0
ENDCHAR
STARTCHAR char92
ENCODING 92
SWIDTH 0 0
DWIDTH 5 0
BBX 4 8 1 0
BITMAP
80
80
40
40
20
20
10
10
ENDCHAR
STARTCHAR char93
ENCODING 93
SWIDTH 0 0
DWIDTH 5 0
BBX 4 9 0 0
BITMAP
F0
10
10
10
10
10
10
10
F0
ENDCHAR
STARTCHAR char94
ENCODING 94
SWIDTH 0 0
DWIDTH 5 0
BBX 3 2 0 7
BITMAP
40
A0
ENDCHAR
STARTCHAR char95
ENCODING 95
SWIDTH 0 0
DWIDTH 5 0
BBX 5 1 0 0
BITMAP
F8
ENDCHAR
STARTCHAR char96
ENCODING 96
SWIDTH 0 0
DWIDTH 5 0
BBX 2 2 0 6
BITMAP
80
40
ENDCHAR
STARTCHAR char97
ENCODING 97
SWIDTH 0 0
DWIDTH 5 0
BBX 4 5 0 1
BITMAP
F0
10
F0
90
F0
ENDCHAR
STARTCHAR char98
ENCODING 98
SWIDTH 0 0
DWIDTH 5 0
BBX 4 7 0 1
BITMAP
80
80
F0
90
90
90
F0
ENDCHAR
STARTCHAR char99
ENCODING 99
SWIDTH 0 0
DWIDTH 5 0
BBX 4 5 0 1
BITMAP
F0
80
80
80
F0
ENDCHAR
STARTCHAR char100
ENCODING 100
SWIDTH 0 0
DWIDTH 5 0
BBX 4 7 0 1
BITMAP
10
10
F0
90
90
90
F0
ENDCHAR
STARTCHAR char101
ENCODING 101
SWIDTH 0 0
DWIDTH 5 0
BBX 4 5 0 1
BITMAP
F0
90
F0
80
F0
ENDCHAR
STARTCHAR char102
ENCODING 102
SWIDTH 0 0
DWIDTH 5 0
BBX 3 7 0 1
BITMAP
60
40
E0
40
40
40
40
ENDCHAR
STARTCHAR char103
ENCODING 103
SWIDTH 0 0
DWIDTH 5 0
BBX 4 6 0 0
BITMAP
F0
90
90
F0
10
F0
ENDCHAR
STARTCHAR char104
ENCODING 104
SWIDTH 0 0
DWIDTH 5 0
BBX 4 7 0 1
BITMAP
80
80
F0
90
90
90
90
ENDCHAR
STARTCHAR char105
ENCODING 105
SWIDTH 0 0
DWIDTH 5 0
BBX 1 7 2 1
BITMAP
80
00
80
80
80
80
80
ENDCHAR
STARTCHAR char106
ENCODING 106
SWIDTH 0 0
DWIDTH 5 0
BBX 3 8 0 0
BITMAP
20
00
20
20
20
20
20
E0
ENDCHAR
STARTCHAR char107
ENCODING 107
SWIDTH 0 0
DWIDTH 5 0
BBX 4 7 0 1
BITMAP
80
80
90
E0
90
90
90
ENDCHAR
STARTCHAR char108
ENCODING 108
SWIDTH 0 0
DWIDTH 5 0
BBX 1 7 2 1
BITMAP
80
80
80
80
80
80
80
ENDCHAR
STARTCHAR char109
ENCODING 109
SWIDTH 0 0
DWIDTH 5 0
BBX 4 5 0 1
BITMAP
90
F0
B0
90
90
ENDCHAR
STARTCHAR char110
ENCODING 110
SWIDTH 0 0
DWIDTH 5 0
BBX 4 5 0 1
BITMAP
F0
90
90
90
90
ENDCHAR
STARTCHAR char111
ENCODING 111
SWIDTH 0 0
DWIDTH 5 0
BBX 4 5 0 1
BITMAP
F0
90
90
90
F0
ENDCHAR
STARTCHAR char112
ENCODING 112
SWIDTH 0 0
DWIDTH 5 0
BBX 4 6 0 0
BITMAP
F0
90
90
F0
80
80
ENDCHAR
STARTCHAR char113
ENCODING 113
SWIDTH 0 0
DWIDTH 5 0
BBX 4 6 0 0
BITMAP
F0
90
90
F0
10
10
ENDCHAR
STARTCHAR char114
ENCODING 114
SWIDTH 0 0
DWIDTH 5 0
BBX 4 5 0 1
BITMAP
F0
80
80
80
80
ENDCHAR
STARTCHAR char115
ENCODING 115
SWIDTH 0 0
DWIDTH 5 0
BBX 4 5 0 1
BITMAP
F0
80
F0
10
F0
ENDCHAR
STARTCHAR char116
ENCODING 116
SWIDTH 0 0
DWIDTH 5 0
BBX 3 7 0 1
BITMAP
40
40
E0
40
40
40
40
ENDCHAR
STARTCHAR char117
ENCODING 117
SWIDTH 0 0
DWIDTH 5 0
BBX 4 5 0 1
BITMAP
90
90
90
90
F0
ENDCHAR
STARTCHAR char118
ENCODING 118
SWIDTH 0 0
DWIDTH 5 0
BBX 4 5 0 1
BITMAP
90
90
A0
C0
80
ENDCHAR
STARTCHAR char119
ENCODING 119
SWIDTH 0 0
DWIDTH 5 0
BBX 4 5 0 1
BITMAP
90
90
B0
F0
90
ENDCHAR
STARTCHAR char120
ENCODING 120
SWIDTH 0 0
DWIDTH 5 0
BBX 4 5 0 1
BITMAP
90
90
60
90
90
ENDCHAR
STARTCHAR char121
ENCODING 121
SWIDTH 0 0
DWIDTH 5 0
BBX 4 6 0 0
BITMAP
90
90
90
F0
10
F0
ENDCHAR
STARTCHAR char122
ENCODING 122
SWIDTH 0 0
DWIDTH 5 0
BBX 4 5 0 1
BITMAP
F0
20
40
80
F0
ENDCHAR
STARTCHAR char123
ENCODING 123
SWIDTH 0 0
DWIDTH 5 0
BBX 4 9 0 0
BITMAP
70
40
40
40
80
40
40
40
70
ENDCHAR
STARTCHAR char124
ENCODING 124
SWIDTH 0 0
DWIDTH 5 0
BBX 1 9 2 0
BITMAP
80
80
80
80
80
80
80
80
80
ENDCHAR
STARTCHAR char125
ENCODING 125
SWIDTH 0 0
DWIDTH 5 0
BBX 4 9 0 0
BITMAP
E0
20
20
20
10
20
20
20
E0
ENDCHAR
STARTCHAR char126
ENCODING 126
SWIDTH 0 0
DWIDTH 5 0
BBX 4 2 0 7
BITMAP
50
A0
ENDCHAR
STARTCHAR char127
ENCODING 127
SWIDTH 0 0
DWIDTH 5 0
BBX 4 8 0 0
BITMAP
60
60
60
90
90
90
90
F0
ENDCHAR
STARTCHAR char128
ENCODING 128
SWIDTH 0 0
DWIDTH 5 0
BBX 5 8 0 1
BITMAP
30
48
B0
A8
A0
A0
A0
E0
ENDCHAR
STARTCHAR char129
ENCODING 129
SWIDTH 0 0
DWIDTH 5 0
BBX 5 8 0 1
BITMAP
08
08
88
48
A8
58
20
18
ENDCHAR
STARTCHAR char130
ENCODING 130
SWIDTH 0 0
DWIDTH 5 0
BBX 2 7 0 2
BITMAP
C0
40
40
40
40
40
80
ENDCHAR
STARTCHAR char131
ENCODING 131
SWIDTH 0 0
DWIDTH 5 0
BBX 5 8 0 1
BITMAP
38
40
B8
80
B8
B8
40
38
ENDCHAR
STARTCHAR char132
ENCODING 132
SWIDTH 0 0
DWIDTH 5 0
BBX 5 8 0 1
BITMAP
F8
00
F8
20
E0
F8
00
F8
ENDCHAR
STARTCHAR char133
ENCODING 133
SWIDTH 0 0
DWIDTH 5 0
BBX 2 8 0 1
BITMAP
C0
40
C0
00
00
C0
40
C0
ENDCHAR
STARTCHAR char134
ENCODING 134
SWIDTH 0 0
DWIDTH 5 0
BBX 5 8 0 1
BITMAP
E0
B8
40
38
38
40
B8
E0
ENDCHAR
STARTCHAR char135
ENCODING 135
SWIDTH 0 0
DWIDTH 5 0
BBX 5 4 0 3
BITMAP
F8
00
00
F8
ENDCHAR
STARTCHAR char136
ENCODING 136
SWIDTH 0 0
DWIDTH 5 0
BBX 5 8 0 1
BITMAP
18
70
88
70
70
88
70
18
ENDCHAR
STARTCHAR char137
ENCODING 137
SWIDTH 0 0
DWIDTH 5 0
BBX 1 8 0 1
BITMAP
80
80
00
00
00
00
80
80
ENDCHAR
STARTCHAR char138
ENCODING 138
SWIDTH 0 0
DWIDTH 5 0
BBX 5 8 0 1
BITMAP
E0
A0
A0
A0
A0
B8
40
38
ENDCHAR
STARTCHAR char139
ENCODING 139
SWIDTH 0 0
DWIDTH 5 0
BBX 5 8 0 1
BITMAP
08
08
08
08
08
F8
00
F8
ENDCHAR
STARTCHAR char140
ENCODING 140
SWIDTH 0 0
DWIDTH 5 0
BBX 2 7 0 2
BITMAP
C0
40
40
40
40
40
80
ENDCHAR
STARTCHAR char141
ENCODING 141
SWIDTH 0 0
DWIDTH 5 0
BBX 5 8 0 1
BITMAP
78
80
B8
80
78
F8
80
F8
ENDCHAR
STARTCHAR char142
ENCODING 142
SWIDTH 0 0
DWIDTH 5 0
BBX 5 8 0 1
BITMAP
F8
00
F8
00
F8
F8
00
F8
ENDCHAR
STARTCHAR char143
ENCODING 143
SWIDTH 0 0
DWIDTH 5 0
BBX 2 8 0 1
BITMAP
C0
40
C0
80
40
40
40
80
ENDCHAR
STARTCHAR char144
ENCODING 144
SWIDTH 0 0
DWIDTH 5 0
BBX 5 9 0 0
BITMAP
20
70
70
60
68
60
F8
F8
68
ENDCHAR
STARTCHAR char145
ENCODING 145
SWIDTH 0 0
DWIDTH 5 0
BBX 5 9 0 0
BITMAP
C0
18
D8
D0
90
40
F0
C0
80
ENDCHAR
STARTCHAR char146
ENCODING 146
SWIDTH 0 0
DWIDTH 5 0
BBX 5 9 0 1
BITMAP
18
08
20
A8
B8
B0
00
08
18
ENDCHAR
STARTCHAR char147
ENCODING 147
SWIDTH 0 0
DWIDTH 5 0
BBX 5 8 0 2
BITMAP
08
D8
F0
70
70
F8
D8
D8
ENDCHAR
STARTCHAR char148
ENCODING 148
SWIDTH 0 0
DWIDTH 5 0
BBX 5 10 0 0
BITMAP
F8
88
88
88
88
88
88
88
88
F8
ENDCHAR
STARTCHAR char149
ENCODING 149
SWIDTH 0 0
DWIDTH 5 0
BBX 5 10 0 0
BITMAP
F8
88
88
88
88
88
88
88
88
F8
ENDCHAR
STARTCHAR char150
ENCODING 150
SWIDTH 0 0
DWIDTH 5 0
BBX 5 10 0 0
BITMAP
F8
88
88
88
88
88
88
88
88
F8
ENDCHAR
STARTCHAR char151
ENCODING 151
SWIDTH 0 0
DWIDTH 5 0
BBX 5 10 0 0
BITMAP
F8
88
88
88
88
88
88
88
88
F8
ENDCHAR
STARTCHAR char152
ENCODING 152
SWIDTH 0 0
DWIDTH 5 0
BBX 5 10 0 0
BITMAP
F8
88
88
88
88
88
88
88
88
F8
ENDCHAR
STARTCHAR char153
ENCODING 153
SWIDTH 0 0
DWIDTH 5 0
BBX 5 10 0 0
BITMAP
F8
88
88
88
88
88
88
88
88
F8
ENDCHAR
STARTCHAR char154
ENCODING 154
SWIDTH 0 0
DWIDTH 5 0
BBX 5 10 0 0
BITMAP
F8
88
88
88
88
88
88
88
88
F8
ENDCHAR
STARTCHAR char155
ENCODING 155
SWIDTH 0 0
DWIDTH 5 0
BBX 4 9 0 0
BITMAP
20
20
70
80
80
80
70
20
20
ENDCHAR
STARTCHAR char156
ENCODING 156
SWIDTH 0 0
DWIDTH 5 0
BBX 4 7 0 1
BITMAP
20
50
40
60
40
E0
D0
ENDCHAR
STARTCHAR char157
ENCODING 157
SWIDTH 0 0
DWIDTH 5 0
BBX 3 8 0 1
BITMAP
A0
A0
A0
40
E0
40
E0
40
ENDCHAR
STARTCHAR char158
ENCODING 158
SWIDTH 0 0
DWIDTH 5 0
BBX 5 10 0 0
BITMAP
F8
88
88
88
88
88
88
88
88
F8
ENDCHAR
STARTCHAR char159
ENCODING 159
SWIDTH 0 0
DWIDTH 5 0
BBX 5 10 0 0
BITMAP
10
28
20
20
70
20
20
20
A0
40
ENDCHAR
STARTCHAR char160
ENCODING 160
SWIDTH 0 0
DWIDTH 5 0
BBX 5 10 0 0
BITMAP
F8
88
88
88
88
88
88
88
88
F8
ENDCHAR
STARTCHAR char161
ENCODING 161
SWIDTH 0 0
DWIDTH 5 0
BBX 5 10 0 0
BITMAP
F8
88
88
88
88
88
88
88
88
F8
ENDCHAR
STARTCHAR char162
ENCODING 162
SWIDTH 0 0
DWIDTH 5 0
BBX 5 10 0 0
BITMAP
F8
88
88
88
88
88
88
88
88
F8
ENDCHAR
STARTCHAR char163
ENCODING 163
SWIDTH 0 0
DWIDTH 5 0
BBX 5 10 0 0
BITMAP
F8
88
88
88
88
88
88
88
88
F8
ENDCHAR
STARTCHAR char164
ENCODING 164
SWIDTH 0 0
DWIDTH 5 0
BBX 5 10 0 0
BITMAP
F8
88
88
88
88
88
88
88
88
F8
ENDCHAR
STARTCHAR char165
ENCODING 165
SWIDTH 0 0
DWIDTH 5 0
BBX 5 10 0 0
BITMAP
F8
88
88
88
88
88
88
88
88
F8
ENDCHAR
STARTCHAR char166
ENCODING 166
SWIDTH 0 0
DWIDTH 5 0
BBX 4 6 0 2
BITMAP
70
90
90
70
00
F0
ENDCHAR
STARTCHAR char167
ENCODING 167
SWIDTH 0 0
DWIDTH 5 0
BBX 4 6 0 2
BITMAP
60
90
90
60
00
F0
ENDCHAR
STARTCHAR char168
ENCODING 168
SWIDTH 0 0
DWIDTH 5 0
BBX 4 7 0 2
BITMAP
20
20
00
20
E0
80
F0
ENDCHAR
STARTCHAR char169
ENCODING 169
SWIDTH 0 0
DWIDTH 5 0
BBX 4 3 0 2
BITMAP
F0
80
80
ENDCHAR
STARTCHAR char170
ENCODING 170
SWIDTH 0 0
DWIDTH 5 0
BBX 4 3 0 2
BITMAP
F0
10
10
ENDCHAR
STARTCHAR char171
ENCODING 171
SWIDTH 0 0
DWIDTH 5 0
BBX 4 9 0 1
BITMAP
80
80
90
A0
40
B0
10
20
30
ENDCHAR
STARTCHAR char172
ENCODING 172
SWIDTH 0 0
DWIDTH 5 0
BBX 4 9 0 1
BITMAP
80
80
90
A0
40
90
50
70
10
ENDCHAR
STARTCHAR char173
ENCODING 173
SWIDTH 0 0
DWIDTH 5 0
BBX 1 8 1 2
BITMAP
80
80
00
80
80
80
80
80
ENDCHAR
STARTCHAR char174
ENCODING 174
SWIDTH 0 0
DWIDTH 5 0
BBX 4 3 0 3
BITMAP
50
A0
50
ENDCHAR
STARTCHAR char175
ENCODING 175
SWIDTH 0 0
DWIDTH 5 0
BBX 4 3 0 3
BITMAP
A0
50
A0
ENDCHAR
STARTCHAR char176
ENCODING 176
SWIDTH 0 0
DWIDTH 5 0
BBX 5 10 0 0
BITMAP
90
48
20
90
48
20
90
48
20
90
ENDCHAR
STARTCHAR char177
ENCODING 177
SWIDTH 0 0
DWIDTH 5 0
BBX 5 10 0 0
BITMAP
50
A8
50
A8
50
A8
50
A8
50
A8
ENDCHAR
STARTCHAR char178
ENCODING 178
SWIDTH 0 0
DWIDTH 5 0
BBX 5 10 0 0
BITMAP
68
B0
D8
68
B0
D8
68
B0
D8
68
ENDCHAR
STARTCHAR char179
ENCODING 179
SWIDTH 0 0
DWIDTH 5 0
BBX 1 10 2 0
BITMAP
80
80
80
80
80
80
80
80
80
80
ENDCHAR
STARTCHAR char180
ENCODING 180
SWIDTH 0 0
DWIDTH 5 0
BBX 3 10 0 0
BITMAP
20
20
20
20
20
E0
20
20
20
20
ENDCHAR
STARTCHAR char181
ENCODING 181
SWIDTH 0 0
DWIDTH 5 0
BBX 3 10 0 0
BITMAP
20
20
20
E0
20
E0
20
20
20
20
ENDCHAR
STARTCHAR char182
ENCODING 182
SWIDTH 0 0
DWIDTH 5 0
BBX 4 10 0 0
BITMAP
50
50
50
50
50
D0
50
50
50
50
ENDCHAR
STARTCHAR char183
ENCODING 183
SWIDTH 0 0
DWIDTH 5 0
BBX 4 5 0 0
BITMAP
F0
50
50
50
50
ENDCHAR
STARTCHAR char184
ENCODING 184
SWIDTH 0 0
DWIDTH 5 0
BBX 3 7 0 0
BITMAP
E0
20
E0
20
20
20
20
ENDCHAR
STARTCHAR char185
ENCODING 185
SWIDTH 0 0
DWIDTH 5 0
BBX 4 10 0 0
BITMAP
50
50
50
D0
10
D0
50
50
50
50
ENDCHAR
STARTCHAR char186
ENCODING 186
SWIDTH 0 0
DWIDTH 5 0
BBX 3 10 1 0
BITMAP
A0
A0
A0
A0
A0
A0
A0
A0
A0
A0
ENDCHAR
STARTCHAR char187
ENCODING 187
SWIDTH 0 0
DWIDTH 5 0
BBX 4 7 0 0
BITMAP
F0
10
D0
50
50
50
50
ENDCHAR
STARTCHAR char188
ENCODING 188
SWIDTH 0 0
DWIDTH 5 0
BBX 4 6 0 4
BITMAP
50
50
50
D0
10
F0
ENDCHAR
STARTCHAR char189
ENCODING 189
SWIDTH 0 0
DWIDTH 5 0
BBX 4 6 0 4
BITMAP
50
50
50
50
50
F0
ENDCHAR
STARTCHAR char190
ENCODING 190
SWIDTH 0 0
DWIDTH 5 0
BBX 3 6 0 4
BITMAP
20
20
20
E0
20
E0
ENDCHAR
STARTCHAR char191
ENCODING 191
SWIDTH 0 0
DWIDTH 5 0
BBX 3 5 0 0
BITMAP
E0
20
20
20
20
ENDCHAR
STARTCHAR char192
ENCODING 192
SWIDTH 0 0
DWIDTH 5 0
BBX 3 6 2 4
BITMAP
80
80
80
80
80
E0
ENDCHAR
STARTCHAR char193
ENCODING 193
SWIDTH 0 0
DWIDTH 5 0
BBX 5 6 0 4
BITMAP
20
20
20
20
20
F8
ENDCHAR
STARTCHAR char194
ENCODING 194
SWIDTH 0 0
DWIDTH 5 0
BBX 5 5 0 0
BITMAP
F8
20
20
20
20
ENDCHAR
STARTCHAR char195
ENCODING 195
SWIDTH 0 0
DWIDTH 5 0
BBX 3 10 2 0
BITMAP
80
80
80
80
80
E0
80
80
80
80
ENDCHAR
STARTCHAR char196
ENCODING 196
SWIDTH 0 0
DWIDTH 5 0
BBX 5 1 0 4
BITMAP
F8
ENDCHAR
STARTCHAR char197
ENCODING 197
SWIDTH 0 0
DWIDTH 5 0
BBX 5 10 0 0
BITMAP
20
20
20
20
20
F8
20
20
20
20
ENDCHAR
STARTCHAR char198
ENCODING 198
SWIDTH 0 0
DWIDTH 5 0
BBX 3 10 2 0
BITMAP
80
80
80
E0
80
E0
80
80
80
80
ENDCHAR
STARTCHAR char199
ENCODING 199
SWIDTH 0 0
DWIDTH 5 0
BBX 4 10 1 0
BITMAP
A0
A0
A0
A0
A0
B0
A0
A0
A0
A0
ENDCHAR
STARTCHAR char200
ENCODING 200
SWIDTH 0 0
DWIDTH 5 0
BBX 4 6 1 4
BITMAP
A0
A0
A0
B0
80
F0
ENDCHAR
STARTCHAR char201
ENCODING 201
SWIDTH 0 0
DWIDTH 5 0
BBX 4 7 1 0
BITMAP
F0
80
B0
A0
A0
A0
A0
ENDCHAR
STARTCHAR char202
ENCODING 202
SWIDTH 0 0
DWIDTH 5 0
BBX 5 6 0 4
BITMAP
50
50
50
D8
00
F8
ENDCHAR
STARTCHAR char203
ENCODING 203
SWIDTH 0 0
DWIDTH 5 0
BBX 5 7 0 0
BITMAP
F8
00
D8
50
50
50
50
ENDCHAR
STARTCHAR char204
ENCODING 204
SWIDTH 0 0
DWIDTH 5 0
BBX 4 10 1 0
BITMAP
A0
A0
A0
B0
80
B0
A0
A0
A0
A0
ENDCHAR
STARTCHAR char205
ENCODING 205
SWIDTH 0 0
DWIDTH 5 0
BBX 5 3 0 4
BITMAP
F8
00
F8
ENDCHAR
STARTCHAR char206
ENCODING 206
SWIDTH 0 0
DWIDTH 5 0
BBX 5 10 0 0
BITMAP
50
50
50
D8
00
D8
50
50
50
50
ENDCHAR
STARTCHAR char207
ENCODING 207
SWIDTH 0 0
DWIDTH 5 0
BBX 5 6 0 4
BITMAP
20
20
20
F8
00
F8
ENDCHAR
STARTCHAR char208
ENCODING 208
SWIDTH 0 0
DWIDTH 5 0
BBX 5 6 0 4
BITMAP
50
50
50
50
50
F8
ENDCHAR
STARTCHAR char209
ENCODING 209
SWIDTH 0 0
DWIDTH 5 0
BBX 5 7 0 0
BITMAP
F8
00
F8
20
20
20
20
ENDCHAR
STARTCHAR char210
ENCODING 210
SWIDTH 0 0
DWIDTH 5 0
BBX 5 5 0 0
BITMAP
F8
50
50
50
50
ENDCHAR
STARTCHAR char211
ENCODING 211
SWIDTH 0 0
DWIDTH 5 0
BBX 4 6 1 4
BITMAP
A0
A0
A0
A0
A0
F0
ENDCHAR
STARTCHAR char212
ENCODING 212
SWIDTH 0 0
DWIDTH 5 0
BBX 3 6 2 4
BITMAP
80
80
80
E0
80
E0
ENDCHAR
STARTCHAR char213
ENCODING 213
SWIDTH 0 0
DWIDTH 5 0
BBX 3 7 2 0
BITMAP
E0
80
E0
80
80
80
80
ENDCHAR
STARTCHAR char214
ENCODING 214
SWIDTH 0 0
DWIDTH 5 0
BBX 4 5 1 0
BITMAP
F0
A0
A0
A0
A0
ENDCHAR
STARTCHAR char215
ENCODING 215
SWIDTH 0 0
DWIDTH 5 0
BBX 5 10 0 0
BITMAP
50
50
50
50
50
F8
50
50
50
50
ENDCHAR
STARTCHAR char216
ENCODING 216
SWIDTH 0 0
DWIDTH 5 0
BBX 5 10 0 0
BITMAP
20
20
20
F8
20
F8
20
20
20
20
ENDCHAR
STARTCHAR char217
ENCODING 217
SWIDTH 0 0
DWIDTH 5 0
BBX 3 6 0 4
BITMAP
20
20
20
20
20
E0
ENDCHAR
STARTCHAR char218
ENCODING 218
SWIDTH 0 0
DWIDTH 5 0
BBX 3 5 2 0
BITMAP
E0
80
80
80
80
ENDCHAR
STARTCHAR char219
ENCODING 219
SWIDTH 0 0
DWIDTH 5 0
BBX 5 10 0 0
BITMAP
F8
F8
F8
F8
F8
F8
F8
F8
F8
F8
ENDCHAR
STARTCHAR char220
ENCODING 220
SWIDTH 0 0
DWIDTH 5 0
BBX 5 5 0 0
BITMAP
F8
F8
F8
F8
F8
ENDCHAR
STARTCHAR char221
ENCODING 221
SWIDTH 0 0
DWIDTH 5 0
BBX 3 10 0 0
BITMAP
E0
E0
E0
E0
E0
E0
E0
E0
E0
E0
ENDCHAR
STARTCHAR char222
ENCODING 222
SWIDTH 0 0
DWIDTH 5 0
BBX 2 10 3 0
BITMAP
C0
C0
C0
C0
C0
C0
C0
C0
C0
C0
ENDCHAR
STARTCHAR char223
ENCODING 223
SWIDTH 0 0
DWIDTH 5 0
BBX 5 5 0 5
BITMAP
F8
F8
F8
F8
F8
ENDCHAR
STARTCHAR char224
ENCODING 224
SWIDTH 0 0
DWIDTH 5 0
BBX 4 5 0 2
BITMAP
50
A0
A0
A0
50
ENDCHAR
STARTCHAR char225
ENCODING 225
SWIDTH 0 0
DWIDTH 5 0
BBX 4 8 0 1
BITMAP
60
90
A0
90
90
A0
80
80
ENDCHAR
STARTCHAR char226
ENCODING 226
SWIDTH 0 0
DWIDTH 5 0
BBX 4 8 0 1
BITMAP
F0
90
80
80
80
80
80
80
ENDCHAR
STARTCHAR char227
ENCODING 227
SWIDTH 0 0
DWIDTH 5 0
BBX 5 5 0 2
BITMAP
F8
50
50
50
50
ENDCHAR
STARTCHAR char228
ENCODING 228
SWIDTH 0 0
DWIDTH 5 0
BBX 3 7 1 2
BITMAP
E0
80
40
20
40
80
E0
ENDCHAR
STARTCHAR char229
ENCODING 229
SWIDTH 0 0
DWIDTH 5 0
BBX 4 5 0 2
BITMAP
70
A0
A0
A0
40
ENDCHAR
STARTCHAR char230
ENCODING 230
SWIDTH 0 0
DWIDTH 5 0
BBX 4 8 0 0
BITMAP
50
50
50
50
50
60
40
80
ENDCHAR
STARTCHAR char231
ENCODING 231
SWIDTH 0 0
DWIDTH 5 0
BBX 4 6 0 2
BITMAP
50
A0
20
20
20
20
ENDCHAR
STARTCHAR char232
ENCODING 232
SWIDTH 0 0
DWIDTH 5 0
BBX 5 8 0 1
BITMAP
F8
20
70
88
88
70
20
F8
ENDCHAR
STARTCHAR char233
ENCODING 233
SWIDTH 0 0
DWIDTH 5 0
BBX 4 7 0 2
BITMAP
60
90
90
F0
90
90
60
ENDCHAR
STARTCHAR char234
ENCODING 234
SWIDTH 0 0
DWIDTH 5 0
BBX 5 6 0 2
BITMAP
70
88
88
50
50
D8
ENDCHAR
STARTCHAR char235
ENCODING 235
SWIDTH 0 0
DWIDTH 5 0
BBX 4 7 0 2
BITMAP
60
80
40
60
90
90
60
ENDCHAR
STARTCHAR char236
ENCODING 236
SWIDTH 0 0
DWIDTH 5 0
BBX 5 5 0 2
BITMAP
70
A8
A8
A8
70
ENDCHAR
STARTCHAR char237
ENCODING 237
SWIDTH 0 0
DWIDTH 5 0
BBX 5 9 0 0
BITMAP
08
08
70
B8
A8
E8
70
80
80
ENDCHAR
STARTCHAR char238
ENCODING 238
SWIDTH 0 0
DWIDTH 5 0
BBX 4 9 0 1
BITMAP
30
40
80
80
E0
80
80
40
30
ENDCHAR
STARTCHAR char239
ENCODING 239
SWIDTH 0 0
DWIDTH 5 0
BBX 4 8 0 1
BITMAP
60
90
90
90
90
90
90
90
ENDCHAR
STARTCHAR char240
ENCODING 240
SWIDTH 0 0
DWIDTH 5 0
BBX 4 5 0 3
BITMAP
F0
00
F0
00
F0
ENDCHAR
STARTCHAR char241
ENCODING 241
SWIDTH 0 0
DWIDTH 5 0
BBX 3 5 1 4
BITMAP
40
E0
40
00
E0
ENDCHAR
STARTCHAR char242
ENCODING 242
SWIDTH 0 0
DWIDTH 5 0
BBX 4 7 0 2
BITMAP
40
20
10
20
40
00
F0
ENDCHAR
STARTCHAR char243
ENCODING 243
SWIDTH 0 0
DWIDTH 5 0
BBX 3 7 1 2
BITMAP
20
40
80
40
20
00
E0
ENDCHAR
STARTCHAR char244
ENCODING 244
SWIDTH 0 0
DWIDTH 5 0
BBX 3 8 1 1
BITMAP
40
A0
A0
80
80
80
80
80
ENDCHAR
STARTCHAR char245
ENCODING 245
SWIDTH 0 0
DWIDTH 5 0
BBX 3 8 0 1
BITMAP
20
20
20
20
20
A0
A0
40
ENDCHAR
STARTCHAR char246
ENCODING 246
SWIDTH 0 0
DWIDTH 5 0
BBX 3 7 0 2
BITMAP
40
40
00
E0
00
40
40
ENDCHAR
STARTCHAR char247
ENCODING 247
SWIDTH 0 0
DWIDTH 5 0
BBX 4 5 0 3
BITMAP
50
A0
00
50
A0
ENDCHAR
STARTCHAR char248
ENCODING 248
SWIDTH 0 0
DWIDTH 5 0
BBX 3 4 1 6
BITMAP
E0
40
A0
40
ENDCHAR
STARTCHAR char249
ENCODING 249
SWIDTH 0 0
DWIDTH 5 0
BBX 2 2 1 3
BITMAP
C0
C0
ENDCHAR
STARTCHAR char250
ENCODING 250
SWIDTH 0 0
DWIDTH 5 0
BBX 2 1 1 3
BITMAP
C0
ENDCHAR
STARTCHAR char251
ENCODING 251
SWIDTH 0 0
DWIDTH 5 0
BBX 5 10 0 0
BITMAP
38
20
20
20
20
20
20
A0
60
20
ENDCHAR
STARTCHAR char252
ENCODING 252
SWIDTH 0 0
DWIDTH 5 0
BBX 4 4 0 3
BITMAP
A0
D0
90
90
ENDCHAR
STARTCHAR char253
ENCODING 253
SWIDTH 0 0
DWIDTH 5 0
BBX 3 4 0 3
BITMAP
C0
20
40
E0
ENDCHAR
STARTCHAR char254
ENCODING 254
SWIDTH 0 0
DWIDTH 5 0
BBX 3 4 0 2
BITMAP
E0
E0
E0
E0
ENDCHAR
STARTCHAR char255
ENCODING 255
SWIDTH 0 0
DWIDTH 5 0
BBX 0 0 0 0
BITMAP
ENDCHAR
ENDFONT
